<?xml version="1.0" encoding="utf-8"?>
<!-- Generator: Adobe Illustrator 16.0.4, SVG Export Plug-In . SVG Version: 6.00 Build 0)  -->
<!DOCTYPE svg PUBLIC "-//W3C//DTD SVG 1.1//EN" "http://www.w3.org/Graphics/SVG/1.1/DTD/svg11.dtd">
<svg version="1.1" id="Layer_1" xmlns="http://www.w3.org/2000/svg" xmlns:xlink="http://www.w3.org/1999/xlink" x="0px" y="0px"
	 width="100px" height="100px" viewBox="0 0 100 100" enable-background="new 0 0 100 100" xml:space="preserve">
<g id="Layer_2">
</g>
<path fill="#FFFFFF" d="M99.868,87.204c0,6.969-5.734,12.702-12.709,12.702H13.534c-6.968,0-12.702-5.733-12.702-12.702V13.561
	c0-6.968,5.74-12.702,12.702-12.702h73.632c6.968,0,12.706,5.734,12.706,12.702v73.644H99.868z M88.65,42.776h-8.709
	c0.846,2.645,1.298,5.539,1.298,8.444c0,16.51-13.805,29.855-30.822,29.855c-16.958,0-30.761-13.346-30.761-29.855
	c0-2.905,0.45-5.799,1.29-8.444h-9.09v41.779c0,2.194,1.739,3.932,3.935,3.932h68.925c2.195,0,3.928-1.737,3.928-3.932V42.776H88.65
	z M50.417,30.907c-10.963,0-19.865,8.646-19.865,19.281c0,10.642,8.902,19.278,19.865,19.278c11.022,0,19.919-8.637,19.919-19.278
	C70.336,39.553,61.439,30.907,50.417,30.907z M88.65,16.333c0-2.443-1.996-4.445-4.446-4.445H72.986
	c-2.45,0-4.449,2.001-4.449,4.445v10.641c0,2.451,1.999,4.444,4.449,4.444h11.218c2.45,0,4.446-1.994,4.446-4.444V16.333z"/>
</svg>
