<?xml version="1.0" encoding="utf-8"?>
<!-- Generator: Adobe Illustrator 16.0.4, SVG Export Plug-In . SVG Version: 6.00 Build 0)  -->
<!DOCTYPE svg PUBLIC "-//W3C//DTD SVG 1.1//EN" "http://www.w3.org/Graphics/SVG/1.1/DTD/svg11.dtd">
<svg version="1.1" id="Layer_1" xmlns="http://www.w3.org/2000/svg" xmlns:xlink="http://www.w3.org/1999/xlink" x="0px" y="0px"
	 width="131.325px" height="98.034px" viewBox="0 0.983 131.325 98.034" enable-background="new 0 0.983 131.325 98.034"
	 xml:space="preserve">
<rect y="29.167" width="32.5" height="40.666"/>
<polygon points="66.5,99.018 8.167,50 66.5,0.983 "/>
<g>
	<path d="M115.224,12.676l-11.657,7.742c5.528,8.295,8.759,18.247,8.759,28.941c0,10.694-3.23,20.646-8.758,28.941l11.656,7.742
		c7.007-10.516,11.102-23.129,11.102-36.684C126.325,35.804,122.23,23.19,115.224,12.676z"/>
	<path d="M89.407,26.501l-11.656,7.742c2.887,4.333,4.574,9.53,4.574,15.116s-1.688,10.783-4.574,15.115l11.657,7.742
		c4.365-6.551,6.917-14.411,6.917-22.857C96.325,40.913,93.773,33.053,89.407,26.501z"/>
</g>
</svg>
