<?xml version="1.0" encoding="utf-8"?>
<!-- Generator: Adobe Illustrator 16.0.4, SVG Export Plug-In . SVG Version: 6.00 Build 0)  -->
<!DOCTYPE svg PUBLIC "-//W3C//DTD SVG 1.1//EN" "http://www.w3.org/Graphics/SVG/1.1/DTD/svg11.dtd">
<svg version="1.1" xmlns="http://www.w3.org/2000/svg" xmlns:xlink="http://www.w3.org/1999/xlink" x="0px" y="0px" width="100px"
	 height="100px" viewBox="0 0 100 100" enable-background="new 0 0 100 100" xml:space="preserve">
<g id="Layer_1">
</g>
<g id="Capa_1">
	<g>
		<path d="M74.298-0.002L61.358-0.023c-14.538,0-23.933,9.639-23.933,24.557v11.322h-13.01c-1.124,0-2.034,0.912-2.034,2.036v16.406
			c0,1.123,0.912,2.033,2.034,2.033h13.01v41.396c0,1.125,0.911,2.034,2.035,2.034h16.976c1.123,0,2.034-0.91,2.034-2.034V56.331
			h15.213c1.124,0,2.034-0.91,2.034-2.033l0.006-16.406c0-0.54-0.214-1.056-0.596-1.438c-0.381-0.382-0.9-0.597-1.438-0.597H58.47
			v-9.598c0-4.614,1.1-6.956,7.108-6.956l8.718-0.004c1.123,0,2.034-0.911,2.034-2.034V2.032C76.33,0.91,75.419,0,74.298-0.002z"/>
	</g>
</g>
</svg>
