<?xml version="1.0" encoding="utf-8"?>
<!-- Generator: Adobe Illustrator 16.0.4, SVG Export Plug-In . SVG Version: 6.00 Build 0)  -->
<!DOCTYPE svg PUBLIC "-//W3C//DTD SVG 1.1//EN" "http://www.w3.org/Graphics/SVG/1.1/DTD/svg11.dtd">
<svg version="1.1" id="Layer_1" xmlns="http://www.w3.org/2000/svg" xmlns:xlink="http://www.w3.org/1999/xlink" x="0px" y="0px"
	 width="100px" height="100px" viewBox="0 0 100 100" enable-background="new 0 0 100 100" xml:space="preserve">
<g id="Layer_1_1_">
	<g>
		<path fill="#FFFFFF" d="M100,19.601c-2.954,4.431-5.908,7.385-10.339,10.339c0,0.738,0,1.477,0,2.954
			c0,5.17-0.739,11.078-2.216,16.248c-1.478,5.169-3.692,10.339-7.386,15.509c-2.954,5.17-7.385,9.601-11.816,13.294
			c-4.431,3.692-9.601,6.646-16.247,8.862C45.349,89.022,38.702,90.5,32.055,90.5c-11.078,0-21.417-2.954-31.018-8.862
			c1.477,0,2.954,0,5.169,0c9.601,0,17.725-2.954,25.11-8.862c-4.431,0-8.124-1.478-11.817-3.692
			c-3.692-2.954-5.908-5.909-7.385-10.34c1.477,0,2.954,0,3.693,0c1.477,0,3.692,0,5.169-0.738
			c-4.431-0.739-8.862-2.954-11.816-6.647c-2.215-3.692-3.692-8.124-3.692-12.555l0,0c2.954,1.477,5.908,2.216,8.862,2.216
			c-2.954-2.216-5.17-4.432-6.647-7.386s-2.215-5.908-2.215-9.601c0-3.693,0.738-7.385,2.954-10.339
			c5.169,5.908,11.078,11.078,18.463,14.771c7.385,3.692,14.771,5.908,23.633,5.908c0-1.477-0.739-2.954-0.739-4.431
			c0-5.908,2.216-10.339,5.909-14.032C59.381,12.216,64.551,10,69.721,10c5.908,0,11.078,2.216,14.771,6.647
			c4.431-0.739,8.862-2.216,12.555-5.17c-1.477,5.17-4.431,8.862-8.862,11.078C92.615,22.555,96.308,21.078,100,19.601z"/>
	</g>
</g>
<g id="Layer_2">
</g>
</svg>
